# Blender v2.79 (sub 0) OBJ File: ''
# www.blender.org
mtllib back_ceil_floor_plane.mtl
o ceil_Plane.005
v 4.658843 9.574968 -4.955274
v -5.060082 9.574968 -4.955274
v -5.060082 9.574964 4.763651
v 4.658843 9.574964 4.763651
vn 0.0000 1.0000 0.0000
usemtl None.002
s 1
f 1//1 2//1 3//1 4//1
o back_Plane.002
v 4.609088 9.772835 -4.479762
v -5.109836 9.772835 -4.479762
v -5.109836 0.056572 -4.707224
v 4.609088 0.056572 -4.707224
vn 0.0000 -0.0234 0.9997
usemtl None.002
s 1
f 5//2 6//2 7//2 8//2
o floor_Plane
v 4.573997 0.117052 -4.948757
v -5.144927 0.117052 -4.948757
v -5.144927 0.117048 4.770167
v 4.573997 0.117048 4.770167
vn 0.0000 1.0000 0.0000
usemtl None.002
s 1
f 9//3 10//3 11//3 12//3
