# Blender v2.79 (sub 0) OBJ File: ''
# www.blender.org
mtllib cornellbox.mtl
o ceil_Plane.005
v 4.658843 9.574967 -4.955275
v -5.060082 9.574967 -4.955275
v -5.060082 9.574965 4.763650
v 4.658843 9.574965 4.763650
vn 0.0000 1.0000 0.0000
usemtl None.002
s off
f 1//1 2//1 3//1 4//1
o back_Plane.002
v 4.609088 9.772834 -4.479763
v -5.109836 9.772834 -4.479763
v -5.109836 0.056571 -4.707224
v 4.609088 0.056571 -4.707224
vn 0.0000 -0.0234 0.9997
usemtl None.002
s off
f 5//2 6//2 7//2 8//2
o floor_Plane
v 4.573997 0.117051 -4.948757
v -5.144927 0.117051 -4.948757
v -5.144927 0.117049 4.770167
v 4.573997 0.117049 4.770167
vn 0.0000 1.0000 0.0000
usemtl None.002
s off
f 9//3 10//3 11//3 12//3
o right_Plane.003
v 4.491515 9.687089 -4.932437
v 4.547822 -0.031672 -4.932439
v 4.547822 -0.031674 4.786486
v 4.491515 9.687087 4.786488
vn -1.0000 -0.0058 -0.0000
usemtl None.002
s off
f 13//4 14//4 15//4 16//4
o left_Plane.004
v -5.028017 9.717774 -4.950933
v -4.971709 -0.000987 -4.950935
v -4.971709 -0.000989 4.767989
v -5.028017 9.717772 4.767991
vn -1.0000 -0.0058 -0.0000
usemtl None.002
s off
f 17//5 18//5 19//5 20//5
